<svg xmlns="http://www.w3.org/2000/svg" viewBox="0 0 400 280" fill="none">
  <defs>
    <linearGradient id="pos-bg" x1="0" y1="0" x2="400" y2="280" gradientUnits="userSpaceOnUse">
      <stop stop-color="#faf7f2"/>
      <stop offset="1" stop-color="#f5f0e8"/>
    </linearGradient>
    <linearGradient id="pos-gold" x1="0" y1="0" x2="1" y2="1">
      <stop stop-color="#d4a853"/>
      <stop offset="1" stop-color="#c4a052"/>
    </linearGradient>
  </defs>
  <rect width="400" height="280" rx="16" fill="url(#pos-bg)"/>
  <rect x="16" y="16" width="368" height="248" rx="12" fill="#ffffff" stroke="#ebe4d8" stroke-width="1"/>
  <rect x="28" y="28" width="344" height="36" rx="8" fill="#f5f0e8"/>
  <circle cx="44" cy="46" r="6" fill="#c4a052"/>
  <text x="58" y="50" fill="#2c2416" font-family="Georgia,serif" font-size="13" font-weight="600">Cullinos POS</text>
  <text x="320" y="50" fill="#9a8b78" font-family="system-ui,sans-serif" font-size="11">Table 12</text>
  <rect x="28" y="76" width="160" height="176" rx="8" fill="#faf7f2" stroke="#ebe4d8"/>
  <rect x="40" y="90" width="136" height="32" rx="6" fill="#ffffff" stroke="#ebe4d8"/>
  <text x="50" y="110" fill="#2c2416" font-family="system-ui,sans-serif" font-size="11">Butter Chicken</text>
  <text x="148" y="110" fill="#c4a052" font-family="system-ui,sans-serif" font-size="11" font-weight="600">?320</text>
  <rect x="40" y="128" width="136" height="32" rx="6" fill="#ffffff" stroke="#ebe4d8"/>
  <text x="50" y="148" fill="#2c2416" font-family="system-ui,sans-serif" font-size="11">Garlic Naan ×2</text>
  <text x="148" y="148" fill="#c4a052" font-family="system-ui,sans-serif" font-size="11" font-weight="600">?120</text>
  <rect x="40" y="166" width="136" height="32" rx="6" fill="#ffffff" stroke="#ebe4d8"/>
  <text x="50" y="186" fill="#2c2416" font-family="system-ui,sans-serif" font-size="11">Masala Chai</text>
  <text x="148" y="186" fill="#c4a052" font-family="system-ui,sans-serif" font-size="11" font-weight="600">?60</text>
  <rect x="204" y="76" width="168" height="120" rx="8" fill="#faf7f2" stroke="#ebe4d8"/>
  <text x="220" y="100" fill="#9a8b78" font-family="system-ui,sans-serif" font-size="10">Order total</text>
  <text x="220" y="130" fill="#2c2416" font-family="Georgia,serif" font-size="28" font-weight="600">?517</text>
  <text x="220" y="152" fill="#6b5e4f" font-family="system-ui,sans-serif" font-size="9">CGST + SGST included</text>
  <rect x="204" y="208" width="168" height="44" rx="22" fill="url(#pos-gold)"/>
  <text x="248" y="235" fill="#ffffff" font-family="system-ui,sans-serif" font-size="12" font-weight="600">Pay &amp; Print</text>
</svg>
